Man Of Steel MP4Cam ENGaudio.mp4

General

Format                                   : MPEG-4
Codec ID                                 : M4V 
File size                                : 246 MiB
Duration                                 : 2h 12mn
Overall bit rate mode                    : Variable
Overall bit rate                         : 260 Kbps
Movie name                               : na
Album                                    : na
Performer                                : na
Recorded date                            : na
Encoded date                             : UTC 2013-06-17 14:36:35
Tagged date                              : UTC 2013-06-17 14:36:35
Comment                                  : na

Video

ID                                       : 1
Format                                   : AVC
Format/Info                              : Advanced Video Codec
Format profile                           : High@L1.3
Format settings, CABAC                   : Yes
Format settings, ReFrames                : 2 frames
Codec ID                                 : avc1
Codec ID/Info                            : Advanced Video Coding
Duration                                 : 2h 12mn
Bit rate mode                            : Variable
Bit rate                                 : 210 Kbps
Maximum bit rate                         : 790 Kbps
Width                                    : 352 pixels
Height                                   : 240 pixels
Display aspect ratio                     : 3:2
Frame rate mode                          : Constant
Frame rate                               : 29.970 fps
Standard                                 : NTSC
Color space                              : YUV
Chroma subsampling                       : 4:2:0
Bit depth                                : 8 bits
Scan type                                : Progressive
Bits/(Pixel*Frame)                       : 0.083
Stream size                              : 199 MiB (81%)
Writing library                          : x264 core 120 r2151 a3f4407
Language                                 : English

Audio

ID                                       : 2
Format                                   : AAC
Format/Info                              : Advanced Audio Codec
Format profile                           : HE-AAC / LC
Codec ID                                 : 40
Duration                                 : 2h 12mn
Bit rate mode                            : Variable
Bit rate                                 : 48.0 Kbps
Maximum bit rate                         : 53.0 Kbps
Channel(s)                               : 2 channels
Channel positions                        : Front: L R
Sampling rate                            : 48.0 KHz / 24.0 KHz
Compression mode                         : Lossy
Stream size                              : 45.5 MiB (18%)
Language                                 : English


Premise

Clark Kent is a humanoid alien who after being transported to Earth from the dying planet of Krypton, was adopted as a child by Jonathan and Martha Kent. Raised with the values of his adoptive parents, he feels alienated because of his unique super powers and struggles to find his own place in life. When the world is attacked, he becomes the hero named Superman to protect Earth and its people from General Zod.



* enjoy ...